{
.appVersion = "939";
copyright = "Copyright (c) 2013 by Juan Pablo del Peral (huertatipografica.com.ar)";
customParameters = (
{
name = panose;
value = (
0,
0,
0,
0,
0,
0,
0,
0,
0,
0
);
},
{
name = openTypeOS2VendorID;
value = Huer;
}
);
date = "2016-11-02 16:53:59 +0000";
designer = "Juan Pablo del Peral";
designerURL = "http://www.huertatipografica.com.ar";
disablesAutomaticAlignment = 1;
familyName = "Alegreya Sans Panos";
fontMaster = (
{
alignmentZones = (
"{700, 12}",
"{641, 12}",
"{586, 12}",
"{499, 12}",
"{459, 12}",
"{0, -12}",
"{-89, -12}",
"{-185, -12}"
);
ascender = 700;
capHeight = 641;
customParameters = (
{
name = typoDescender;
value = -250;
},
{
name = typoLineGap;
value = 0;
},
{
name = hheaLineGap;
value = 9;
},
{
name = hheaAscender;
value = 750;
},
{
name = typoAscender;
value = 750;
},
{
name = hheaDescender;
value = -250;
},
{
name = winDescent;
value = 0;
},
{
name = winAscent;
value = 0;
}
);
descender = -185;
horizontalStems = (
59,
68,
71
);
id = UUID0;
verticalStems = (
78,
82,
88
);
xHeight = 459;
}
);
glyphs = (
{
color = 0;
glyphname = Gamma;
lastChange = "2016-11-15 22:45:10 +0000";
layers = (
{
background = {
paths = (
{
closed = 1;
nodes = (
"178 641 LINE",
"92 641 LINE",
"96 193 LINE",
"92 0 LINE",
"177 0 LINE",
"174 200 LINE"
);
},
{
closed = 1;
nodes = (
"409 641 LINE",
"142 641 LINE",
"139 579 LINE",
"142 572 LINE",
"272 572 LINE",
"408 570 LINE",
"414 633 LINE"
);
}
);
};
layerId = UUID0;
paths = (
{
closed = 1;
nodes = (
"178 641 LINE",
"92 641 LINE",
"96 193 LINE",
"92 0 LINE",
"177 0 LINE",
"174 200 LINE"
);
},
{
closed = 1;
nodes = (
"421 641 LINE",
"142 641 LINE",
"139 579 LINE",
"142 572 LINE",
"284 572 LINE",
"420 570 LINE",
"426 633 LINE"
);
}
);
width = 430;
}
);
leftKerningGroup = B;
rightKerningGroup = Gamma;
unicode = 0393;
},
{
color = 0;
glyphname = Delta;
lastChange = "2016-11-15 23:26:17 +0000";
layers = (
{
background = {
paths = (
{
closed = 1;
nodes = (
"346 641 LINE",
"246 641 LINE",
"13 0 LINE",
"559 0 LINE"
);
},
{
closed = 1;
nodes = (
"298 554 LINE",
"458 65 LINE",
"111 65 LINE",
"290 554 LINE"
);
}
);
};
layerId = UUID0;
paths = (
{
closed = 1;
nodes = (
"344 641 LINE",
"246 641 LINE",
"34 62 LINE",
"34 -3 LINE",
"99 0 LINE",
"420 0 LINE",
"538 -3 LINE",
"538 62 LINE"
);
},
{
closed = 1;
nodes = (
"114 71 LINE",
"290 554 LINE",
"296 554 LINE",
"454 71 LINE"
);
}
);
width = 580;
}
);
leftKerningGroup = A;
rightKerningGroup = A;
unicode = 0394;
},
{
color = 0;
glyphname = Sigma;
lastChange = "2016-11-15 22:45:10 +0000";
layers = (
{
background = {
paths = (
{
closed = 1;
nodes = (
"454 642 LINE",
"369 641 LINE",
"116 641 LINE",
"34 641 LINE",
"34 575 LINE",
"249 324 LINE",
"31 61 LINE",
"31 -1 LINE",
"113 0 LINE",
"345 0 LINE",
"454 -1 LINE",
"461 62 LINE",
"454 70 LINE",
"364 66 LINE",
"136 66 LINE",
"344 316 LINE",
"344 333 LINE",
"139 574 LINE",
"376 574 LINE",
"455 571 LINE",
"462 634 LINE"
);
}
);
};
layerId = UUID0;
paths = (
{
closed = 1;
nodes = (
"315 348 LINE",
"145 572 LINE",
"376 572 LINE",
"455 569 LINE",
"462 634 LINE",
"454 642 LINE",
"369 641 LINE",
"118 641 LINE",
"39 643 LINE",
"39 572 LINE",
"221 332 LINE",
"31 64 LINE",
"31 -1 LINE",
"113 0 LINE",
"347 0 LINE",
"456 -1 LINE",
"463 68 LINE",
"456 76 LINE",
"366 72 LINE",
"129 72 LINE",
"315 331 LINE"
);
}
);
width = 488;
}
);
leftKerningGroup = X;
rightKerningGroup = AE;
unicode = 03A3;
},
{
color = 0;
glyphname = Phi;
lastChange = "2016-11-15 22:45:10 +0000";
layers = (
{
background = {
paths = (
{
closed = 1;
nodes = (
"575 62 OFFCURVE",
"693 153 OFFCURVE",
"693 328 CURVE SMOOTH",
"693 497 OFFCURVE",
"586 578 OFFCURVE",
"378 578 CURVE SMOOTH",
"163 578 OFFCURVE",
"47 491 OFFCURVE",
"47 316 CURVE SMOOTH",
"47 146 OFFCURVE",
"156 62 OFFCURVE",
"362 62 CURVE SMOOTH"
);
},
{
closed = 1;
nodes = (
"204 119 OFFCURVE",
"129 181 OFFCURVE",
"129 319 CURVE SMOOTH",
"129 456 OFFCURVE",
"202 517 OFFCURVE",
"371 517 CURVE SMOOTH",
"540 517 OFFCURVE",
"611 458 OFFCURVE",
"611 322 CURVE SMOOTH",
"611 184 OFFCURVE",
"535 119 OFFCURVE",
"369 119 CURVE SMOOTH"
);
},
{
closed = 1;
nodes = (
"411 640 LINE",
"330 640 LINE",
"334 193 LINE",
"330 0 LINE",
"410 0 LINE",
"407 200 LINE"
);
}
);
};
layerId = UUID0;
paths = (
{
closed = 1;
nodes = (
"361 46 LINE",
"564 46 OFFCURVE",
"703 143 OFFCURVE",
"703 328 CURVE SMOOTH",
"703 507 OFFCURVE",
"576 594 OFFCURVE",
"378 594 CURVE SMOOTH",
"173 594 OFFCURVE",
"37 501 OFFCURVE",
"37 316 CURVE SMOOTH",
"37 136 OFFCURVE",
"165 46 OFFCURVE",
"361 46 CURVE SMOOTH"
);
},
{
closed = 1;
nodes = (
"369 105 LINE",
"219 105 OFFCURVE",
"120 181 OFFCURVE",
"120 319 CURVE SMOOTH",
"120 456 OFFCURVE",
"217 531 OFFCURVE",
"371 531 CURVE SMOOTH",
"525 531 OFFCURVE",
"620 458 OFFCURVE",
"620 322 CURVE SMOOTH",
"620 184 OFFCURVE",
"520 105 OFFCURVE",
"369 105 CURVE SMOOTH"
);
},
{
closed = 1;
nodes = (
"411 655 LINE",
"330 655 LINE",
"334 178 LINE",
"330 -15 LINE",
"410 -15 LINE",
"407 185 LINE"
);
}
);
width = 739;
}
);
leftKerningGroup = C;
rightKerningGroup = D;
unicode = 03A6;
},
{
color = 0;
glyphname = Omega;
lastChange = "2016-11-15 23:26:17 +0000";
layers = (
{
anchors = (
{
name = bottom;
position = "{349, 0}";
},
{
name = top;
position = "{349, 641}";
},
{
name = topleft;
position = "{9, 641}";
}
);
background = {
paths = (
{
closed = 1;
nodes = (
"55 69 LINE",
"46 4 LINE",
"52 -3 LINE",
"126 0 LINE",
"250 0 LINE",
"291 -2 LINE",
"295 2 LINE",
"294 69 LINE",
"191 149 OFFCURVE",
"145 234 OFFCURVE",
"145 354 CURVE SMOOTH",
"145 495 OFFCURVE",
"217 578 OFFCURVE",
"348 578 CURVE SMOOTH",
"480 578 OFFCURVE",
"552 495 OFFCURVE",
"552 354 CURVE SMOOTH",
"552 234 OFFCURVE",
"503 149 OFFCURVE",
"402 69 CURVE",
"401 2 LINE",
"406 -2 LINE",
"447 0 LINE",
"570 0 LINE",
"642 -1 LINE",
"651 63 LINE",
"645 70 LINE",
"571 65 LINE",
"480 65 LINE",
"480 70 LINE",
"587 139 OFFCURVE",
"639 237 OFFCURVE",
"639 361 CURVE SMOOTH",
"639 545 OFFCURVE",
"533 648 OFFCURVE",
"348 648 CURVE SMOOTH",
"164 648 OFFCURVE",
"58 545 OFFCURVE",
"58 361 CURVE SMOOTH",
"58 237 OFFCURVE",
"109 139 OFFCURVE",
"217 70 CURVE",
"217 65 LINE",
"127 65 LINE"
);
}
);
};
layerId = UUID0;
paths = (
{
closed = 1;
nodes = (
"40 73 LINE",
"31 4 LINE",
"37 -3 LINE",
"111 0 LINE",
"223 0 LINE",
"264 -2 LINE",
"268 2 LINE",
"268 82 LINE",
"165 162 OFFCURVE",
"126 232 OFFCURVE",
"126 342 CURVE SMOOTH",
"126 483 OFFCURVE",
"186 578 OFFCURVE",
"317 578 CURVE SMOOTH",
"449 578 OFFCURVE",
"510 484 OFFCURVE",
"510 343 CURVE SMOOTH",
"510 223 OFFCURVE",
"467 162 OFFCURVE",
"366 82 CURVE",
"366 2 LINE",
"371 -2 LINE",
"412 0 LINE",
"522 0 LINE",
"594 -1 LINE",
"603 67 LINE",
"597 74 LINE",
"523 69 LINE",
"453 69 LINE",
"453 74 LINE",
"550 140 OFFCURVE",
"599 235 OFFCURVE",
"599 349 CURVE SMOOTH",
"599 533 OFFCURVE",
"502 648 OFFCURVE",
"317 648 CURVE SMOOTH",
"140 648 OFFCURVE",
"39 516 OFFCURVE",
"39 346 CURVE SMOOTH",
"39 227 OFFCURVE",
"87 125 OFFCURVE",
"183 74 CURVE",
"183 69 LINE",
"112 69 LINE"
);
}
);
width = 636;
}
);
leftKerningGroup = uni03A9;
rightKerningGroup = uni03A9;
unicode = 03A9;
},
{
color = 0;
glyphname = Alphatonos;
lastChange = "2016-11-15 22:45:16 +0000";
layers = (
{
anchors = (
{
name = _top;
position = "{95, 414}";
},
{
name = ogonek;
position = "{647, 10}";
},
{
name = top;
position = "{343, 641}";
}
);
layerId = UUID0;
paths = (
{
closed = 1;
nodes = (
"135 657 LINE",
"115 597 OFFCURVE",
"96 543 OFFCURVE",
"76 489 CURVE",
"112 474 LINE",
"120 478 LINE",
"147 529 OFFCURVE",
"172 577 OFFCURVE",
"198 631 CURVE",
"195 641 LINE",
"143 662 LINE"
);
},
{
closed = 1;
nodes = (
"399 641 LINE",
"299 641 LINE",
"65 0 LINE",
"151 0 LINE",
"167 70 LINE",
"343 554 LINE",
"350 554 LINE",
"508 66 LINE",
"523 0 LINE",
"611 0 LINE"
);
},
{
closed = 1;
nodes = (
"497 244 LINE",
"339 241 LINE",
"181 244 LINE",
"181 170 LINE",
"332 173 LINE",
"497 170 LINE"
);
}
);
width = 632;
}
);
unicode = 0386;
},
{
color = 0;
glyphname = Epsilontonos;
lastChange = "2016-11-15 22:45:16 +0000";
layers = (
{
anchors = (
{
name = _top;
position = "{43, 414}";
},
{
name = bottom;
position = "{386, 0}";
},
{
name = ogonek;
position = "{573, 10}";
},
{
name = top;
position = "{379, 641}";
}
);
layerId = UUID0;
paths = (
{
closed = 1;
nodes = (
"83 657 LINE",
"63 597 OFFCURVE",
"44 543 OFFCURVE",
"24 489 CURVE",
"60 474 LINE",
"68 478 LINE",
"95 529 OFFCURVE",
"120 577 OFFCURVE",
"146 631 CURVE",
"143 641 LINE",
"91 662 LINE"
);
},
{
closed = 1;
nodes = (
"283 641 LINE",
"195 641 LINE",
"201 193 LINE",
"195 0 LINE",
"282 0 LINE",
"278 200 LINE"
);
},
{
closed = 1;
nodes = (
"561 75 LINE",
"408 70 LINE",
"254 72 LINE",
"251 7 LINE",
"254 0 LINE",
"560 0 LINE",
"566 67 LINE"
);
},
{
closed = 1;
nodes = (
"505 365 LINE",
"399 362 LINE",
"257 364 LINE",
"254 299 LINE",
"257 292 LINE",
"392 294 LINE",
"504 291 LINE",
"511 358 LINE"
);
},
{
closed = 1;
nodes = (
"561 641 LINE",
"254 641 LINE",
"251 575 LINE",
"254 568 LINE",
"408 570 LINE",
"559 566 LINE",
"566 633 LINE"
);
}
);
width = 589;
}
);
unicode = 0388;
},
{
color = 0;
glyphname = Etatonos;
lastChange = "2016-11-15 22:45:16 +0000";
layers = (
{
anchors = (
{
name = _top;
position = "{43, 414}";
},
{
name = center;
position = "{443, 321}";
},
{
name = top;
position = "{443, 641}";
}
);
layerId = UUID0;
paths = (
{
closed = 1;
nodes = (
"83 657 LINE",
"63 597 OFFCURVE",
"44 543 OFFCURVE",
"24 489 CURVE",
"60 474 LINE",
"68 478 LINE",
"95 529 OFFCURVE",
"120 577 OFFCURVE",
"146 631 CURVE",
"143 641 LINE",
"91 662 LINE"
);
},
{
closed = 1;
nodes = (
"697 641 LINE",
"610 641 LINE",
"614 193 LINE",
"610 0 LINE",
"695 0 LINE",
"693 200 LINE"
);
},
{
closed = 1;
nodes = (
"282 641 LINE",
"196 641 LINE",
"200 193 LINE",
"196 0 LINE",
"281 0 LINE",
"278 200 LINE"
);
},
{
closed = 1;
nodes = (
"267 359 LINE",
"267 287 LINE",
"439 288 LINE",
"624 287 LINE",
"624 359 LINE",
"446 358 LINE"
);
}
);
width = 789;
}
);
unicode = 0389;
},
{
color = 0;
glyphname = Iotatonos;
lastChange = "2016-11-15 22:45:16 +0000";
layers = (
{
anchors = (
{
name = _top;
position = "{43, 414}";
},
{
name = ogonek;
position = "{338, 10}";
},
{
name = top;
position = "{239, 641}";
}
);
layerId = UUID0;
paths = (
{
closed = 1;
nodes = (
"83 657 LINE",
"63 597 OFFCURVE",
"44 543 OFFCURVE",
"24 489 CURVE",
"60 474 LINE",
"68 478 LINE",
"95 529 OFFCURVE",
"120 577 OFFCURVE",
"146 631 CURVE",
"143 641 LINE",
"91 662 LINE"
);
},
{
closed = 1;
nodes = (
"283 641 LINE",
"195 641 LINE",
"201 193 LINE",
"195 0 LINE",
"282 0 LINE",
"278 200 LINE"
);
}
);
width = 375;
}
);
unicode = 038A;
},
{
color = 0;
glyphname = Omicrontonos;
lastChange = "2016-11-15 22:45:16 +0000";
layers = (
{
anchors = (
{
name = _top;
position = "{45, 414}";
},
{
name = top;
position = "{414, 641}";
}
);
layerId = UUID0;
paths = (
{
closed = 1;
nodes = (
"85 657 LINE",
"65 597 OFFCURVE",
"46 543 OFFCURVE",
"26 489 CURVE",
"62 474 LINE",
"70 478 LINE",
"97 529 OFFCURVE",
"122 577 OFFCURVE",
"148 631 CURVE",
"145 641 LINE",
"93 662 LINE"
);
},
{
closed = 1;
nodes = (
"421 648 LINE",
"236 648 OFFCURVE",
"132 529 OFFCURVE",
"132 315 CURVE SMOOTH",
"132 109 OFFCURVE",
"230 -8 OFFCURVE",
"404 -8 CURVE SMOOTH",
"590 -8 OFFCURVE",
"695 115 OFFCURVE",
"695 333 CURVE SMOOTH",
"695 535 OFFCURVE",
"597 648 OFFCURVE",
"421 648 CURVE"
);
},
{
closed = 1;
nodes = (
"415 578 LINE",
"543 578 OFFCURVE",
"606 496 OFFCURVE",
"606 317 CURVE SMOOTH",
"606 142 OFFCURVE",
"541 59 OFFCURVE",
"411 59 CURVE SMOOTH",
"283 59 OFFCURVE",
"220 143 OFFCURVE",
"220 325 CURVE SMOOTH",
"220 496 OFFCURVE",
"285 578 OFFCURVE",
"415 578 CURVE SMOOTH"
);
}
);
width = 731;
}
);
unicode = 038C;
},
{
color = 0;
glyphname = Upsilontonos;
lastChange = "2016-11-15 22:45:16 +0000";
layers = (
{
anchors = (
{
name = _top;
position = "{42, 414}";
},
{
name = top;
position = "{420, 641}";
}
);
layerId = UUID0;
paths = (
{
closed = 1;
nodes = (
"82 657 LINE",
"62 597 OFFCURVE",
"43 543 OFFCURVE",
"23 489 CURVE",
"59 474 LINE",
"67 478 LINE",
"94 529 OFFCURVE",
"119 577 OFFCURVE",
"145 631 CURVE",
"142 641 LINE",
"90 662 LINE"
);
},
{
closed = 1;
nodes = (
"680 641 LINE",
"589 641 LINE",
"574 602 LINE",
"424 321 LINE",
"416 321 LINE",
"279 604 LINE",
"266 641 LINE",
"174 641 LINE",
"403 179 LINE",
"431 179 LINE"
);
},
{
closed = 1;
nodes = (
"458 273 LINE",
"377 273 LINE",
"379 186 LINE",
"373 0 LINE",
"460 0 LINE",
"456 186 LINE"
);
}
);
width = 691;
}
);
unicode = 038E;
},
{
color = 0;
glyphname = Omegatonos;
lastChange = "2016-11-15 22:45:16 +0000";
layers = (
{
anchors = (
{
name = bottom;
position = "{446, 0}";
},
{
name = top;
position = "{446, 641}";
},
{
name = topleft;
position = "{106, 641}";
}
);
layerId = UUID0;
paths = (
{
closed = 1;
nodes = (
"137 73 LINE",
"128 4 LINE",
"134 -3 LINE",
"208 0 LINE",
"320 0 LINE",
"361 -2 LINE",
"365 2 LINE",
"365 82 LINE",
"262 162 OFFCURVE",
"223 232 OFFCURVE",
"223 342 CURVE SMOOTH",
"223 483 OFFCURVE",
"283 578 OFFCURVE",
"414 578 CURVE SMOOTH",
"546 578 OFFCURVE",
"607 484 OFFCURVE",
"607 343 CURVE SMOOTH",
"607 223 OFFCURVE",
"564 162 OFFCURVE",
"463 82 CURVE",
"463 2 LINE",
"468 -2 LINE",
"509 0 LINE",
"619 0 LINE",
"691 -1 LINE",
"700 67 LINE",
"694 74 LINE",
"620 69 LINE",
"550 69 LINE",
"550 74 LINE",
"647 140 OFFCURVE",
"696 235 OFFCURVE",
"696 349 CURVE SMOOTH",
"696 533 OFFCURVE",
"599 648 OFFCURVE",
"414 648 CURVE SMOOTH",
"237 648 OFFCURVE",
"136 516 OFFCURVE",
"136 346 CURVE SMOOTH",
"136 227 OFFCURVE",
"184 125 OFFCURVE",
"280 74 CURVE",
"280 69 LINE",
"209 69 LINE"
);
},
{
closed = 1;
nodes = (
"85 657 LINE",
"65 597 OFFCURVE",
"46 543 OFFCURVE",
"26 489 CURVE",
"62 474 LINE",
"70 478 LINE",
"97 529 OFFCURVE",
"122 577 OFFCURVE",
"148 631 CURVE",
"145 641 LINE",
"93 662 LINE"
);
}
);
width = 733;
}
);
unicode = 038F;
},
{
color = 0;
glyphname = alpha;
lastChange = "2016-11-15 22:45:10 +0000";
layers = (
{
anchors = (
{
name = top;
position = "{268, 459}";
}
);
background = {
paths = (
{
closed = 1;
nodes = (
"270 -2 OFFCURVE",
"309 22 OFFCURVE",
"343 61 CURVE",
"377 61 LINE",
"355 131 LINE",
"323 84 OFFCURVE",
"284 58 OFFCURVE",
"237 58 CURVE SMOOTH",
"165 58 OFFCURVE",
"118 119 OFFCURVE",
"118 233 CURVE SMOOTH",
"118 348 OFFCURVE",
"168 406 OFFCURVE",
"260 406 CURVE SMOOTH",
"294 406 OFFCURVE",
"323 397 OFFCURVE",
"375 377 CURVE",
"428 460 LINE",
"419 465 LINE",
"372 446 LINE",
"337 456 OFFCURVE",
"300 466 OFFCURVE",
"257 466 CURVE SMOOTH",
"127 466 OFFCURVE",
"39 380 OFFCURVE",
"39 222 CURVE SMOOTH",
"39 79 OFFCURVE",
"110 -6 OFFCURVE",
"223 -6 CURVE"
);
},
{
closed = 1;
nodes = (
"455 -3 OFFCURVE",
"479 6 OFFCURVE",
"501 21 CURVE",
"510 66 LINE",
"502 74 LINE",
"486 64 OFFCURVE",
"472 60 OFFCURVE",
"458 60 CURVE SMOOTH",
"433 60 OFFCURVE",
"424 73 OFFCURVE",
"424 110 CURVE SMOOTH",
"428 460 LINE",
"345 432 LINE",
"347 232 LINE",
"347 85 LINE",
"355 22 OFFCURVE",
"382 -6 OFFCURVE",
"435 -5 CURVE"
);
}
);
};
layerId = UUID0;
paths = (
{
closed = 1;
nodes = (
"218 -6 LINE",
"265 -2 OFFCURVE",
"294 22 OFFCURVE",
"328 61 CURVE",
"362 61 LINE",
"340 131 LINE",
"308 84 OFFCURVE",
"279 58 OFFCURVE",
"232 58 CURVE SMOOTH",
"160 58 OFFCURVE",
"118 119 OFFCURVE",
"118 233 CURVE SMOOTH",
"118 352 OFFCURVE",
"173 402 OFFCURVE",
"239 402 CURVE SMOOTH",
"276 402 OFFCURVE",
"306 393 OFFCURVE",
"338 363 CURVE",
"413 460 LINE",
"404 465 LINE",
"339 435 LINE",
"319 451 OFFCURVE",
"287 463 OFFCURVE",
"238 463 CURVE SMOOTH",
"126 463 OFFCURVE",
"39 384 OFFCURVE",
"39 226 CURVE SMOOTH",
"39 83 OFFCURVE",
"105 -6 OFFCURVE",
"218 -6 CURVE"
);
},
{
closed = 1;
nodes = (
"409 202 LINE",
"413 460 LINE",
"333 432 LINE",
"335 232 LINE",
"335 85 LINE",
"343 23 OFFCURVE",
"366 -5 OFFCURVE",
"417 -5 CURVE",
"437 -3 OFFCURVE",
"457 4 OFFCURVE",
"474 14 CURVE",
"482 62 LINE",
"474 69 LINE",
"458 65 OFFCURVE",
"450 64 OFFCURVE",
"441 64 CURVE SMOOTH",
"420 64 OFFCURVE",
"413 73 OFFCURVE",
"412 100 CURVE SMOOTH"
);
}
);
width = 512;
}
);
leftKerningGroup = alpha;
rightKerningGroup = alpha;
unicode = 03B1;
},
{
color = 0;
glyphname = beta;
lastChange = "2016-11-15 22:45:10 +0000";
layers = (
{
background = {
paths = (
{
closed = 1;
nodes = (
"79 -185 LINE",
"161 -185 LINE",
"158 487 LINE SMOOTH",
"158 586 OFFCURVE",
"199 638 OFFCURVE",
"277 638 CURVE SMOOTH",
"340 638 OFFCURVE",
"375 602 OFFCURVE",
"375 536 CURVE SMOOTH",
"375 472 OFFCURVE",
"343 418 OFFCURVE",
"284 378 CURVE",
"226 378 LINE",
"223 323 LINE",
"229 317 LINE",
"279 317 LINE SMOOTH",
"358 317 OFFCURVE",
"407 267 OFFCURVE",
"407 187 CURVE SMOOTH",
"407 103 OFFCURVE",
"347 59 OFFCURVE",
"257 59 CURVE SMOOTH",
"211 59 OFFCURVE",
"158 71 OFFCURVE",
"100 94 CURVE",
"97 21 LINE",
"150 3 OFFCURVE",
"202 -6 OFFCURVE",
"249 -6 CURVE SMOOTH",
"385 -6 OFFCURVE",
"484 67 OFFCURVE",
"484 189 CURVE SMOOTH",
"484 300 OFFCURVE",
"412 365 OFFCURVE",
"288 365 CURVE",
"312 336 LINE",
"404 386 OFFCURVE",
"453 459 OFFCURVE",
"453 547 CURVE SMOOTH",
"453 646 OFFCURVE",
"391 703 OFFCURVE",
"285 703 CURVE SMOOTH",
"155 703 OFFCURVE",
"82 619 OFFCURVE",
"82 468 CURVE SMOOTH",
"82 194 LINE"
);
}
);
};
layerId = UUID0;
paths = (
{
closed = 1;
nodes = (
"79 -185 LINE",
"161 -185 LINE",
"158 482 LINE SMOOTH",
"158 574 OFFCURVE",
"192 643 OFFCURVE",
"270 643 CURVE SMOOTH",
"330 643 OFFCURVE",
"358 597 OFFCURVE",
"358 544 CURVE SMOOTH",
"358 481 OFFCURVE",
"316 432 OFFCURVE",
"270 408 CURVE",
"226 408 LINE",
"223 353 LINE",
"229 347 LINE",
"265 347 LINE SMOOTH",
"345 347 OFFCURVE",
"391 279 OFFCURVE",
"391 202 CURVE SMOOTH",
"391 101 OFFCURVE",
"325 56 OFFCURVE",
"248 56 CURVE SMOOTH",
"202 56 OFFCURVE",
"158 70 OFFCURVE",
"100 94 CURVE",
"97 21 LINE",
"150 3 OFFCURVE",
"192 -6 OFFCURVE",
"239 -6 CURVE SMOOTH",
"382 -6 OFFCURVE",
"470 85 OFFCURVE",
"470 207 CURVE SMOOTH",
"470 310 OFFCURVE",
"398 385 OFFCURVE",
"284 395 CURVE",
"298 366 LINE",
"378 408 OFFCURVE",
"437 469 OFFCURVE",
"437 555 CURVE SMOOTH",
"437 640 OFFCURVE",
"374 703 OFFCURVE",
"278 703 CURVE SMOOTH",
"148 703 OFFCURVE",
"82 619 OFFCURVE",
"82 468 CURVE SMOOTH",
"84 194 LINE"
);
}
);
width = 512;
}
);
leftKerningGroup = b;
rightKerningGroup = beta;
unicode = 03B2;
},
{
color = 0;
glyphname = gamma;
lastChange = "2016-11-15 22:45:10 +0000";
layers = (
{
background = {
paths = (
{
closed = 1;
nodes = (
"160 -185 LINE",
"243 -185 LINE",
"241 43 LINE",
"162 43 LINE"
);
},
{
closed = 1;
nodes = (
"326 460 LINE",
"322 455 LINE",
"328 397 OFFCURVE",
"316 341 OFFCURVE",
"266 221 CURVE SMOOTH",
"210 88 LINE",
"204 88 LINE",
"108 399 LINE",
"95 462 LINE",
"16 457 LINE",
"163 -4 LINE",
"240 -4 LINE",
"326 197 LINE SMOOTH",
"388 341 OFFCURVE",
"401 394 OFFCURVE",
"393 459 CURVE"
);
}
);
};
layerId = UUID0;
paths = (
{
closed = 1;
nodes = (
"160 -185 LINE",
"245 -185 LINE",
"239 43 LINE",
"164 43 LINE"
);
},
{
closed = 1;
nodes = (
"326 460 LINE",
"322 455 LINE",
"328 397 OFFCURVE",
"316 341 OFFCURVE",
"266 221 CURVE SMOOTH",
"210 88 LINE",
"204 88 LINE",
"108 399 LINE",
"95 462 LINE",
"16 457 LINE",
"163 -4 LINE",
"240 -4 LINE",
"326 197 LINE SMOOTH",
"388 341 OFFCURVE",
"401 394 OFFCURVE",
"393 459 CURVE"
);
}
);
width = 422;
}
);
leftKerningGroup = gamma;
rightKerningGroup = gamma;
unicode = 03B3;
},
{
color = 0;
glyphname = delta;
lastChange = "2016-11-15 22:45:10 +0000";
layers = (
{
background = {
paths = (
{
closed = 1;
nodes = (
"374 -8 OFFCURVE",
"454 80 OFFCURVE",
"454 217 CURVE SMOOTH",
"454 473 OFFCURVE",
"175 467 OFFCURVE",
"175 586 CURVE SMOOTH",
"175 651 OFFCURVE",
"263 671 OFFCURVE",
"382 630 CURVE",
"394 633 LINE",
"405 694 LINE",
"220 735 OFFCURVE",
"104 690 OFFCURVE",
"104 576 CURVE SMOOTH",
"104 403 OFFCURVE",
"383 426 OFFCURVE",
"383 202 CURVE SMOOTH",
"383 108 OFFCURVE",
"333 51 OFFCURVE",
"253 51 CURVE SMOOTH",
"173 51 OFFCURVE",
"124 108 OFFCURVE",
"124 202 CURVE SMOOTH",
"124 292 OFFCURVE",
"168 357 OFFCURVE",
"273 418 CURVE",
"230 436 LINE",
"99 378 OFFCURVE",
"45 302 OFFCURVE",
"45 201 CURVE SMOOTH",
"45 81 OFFCURVE",
"121 -8 OFFCURVE",
"248 -8 CURVE SMOOTH"
);
}
);
};
layerId = UUID0;
paths = (
{
closed = 1;
nodes = (
"244 -8 LINE",
"370 -8 OFFCURVE",
"448 82 OFFCURVE",
"448 219 CURVE SMOOTH",
"448 349 OFFCURVE",
"378 402 OFFCURVE",
"307 451 CURVE SMOOTH",
"239 498 OFFCURVE",
"171 523 OFFCURVE",
"171 581 CURVE SMOOTH",
"171 623 OFFCURVE",
"208 646 OFFCURVE",
"266 646 CURVE SMOOTH",
"298 646 OFFCURVE",
"336 639 OFFCURVE",
"378 625 CURVE",
"390 628 LINE",
"401 689 LINE",
"356 699 OFFCURVE",
"314 704 OFFCURVE",
"278 704 CURVE SMOOTH",
"166 704 OFFCURVE",
"100 660 OFFCURVE",
"100 574 CURVE SMOOTH",
"100 480 OFFCURVE",
"191 452 OFFCURVE",
"262 402 CURVE SMOOTH",
"323 359 OFFCURVE",
"369 314 OFFCURVE",
"369 212 CURVE SMOOTH",
"369 118 OFFCURVE",
"329 51 OFFCURVE",
"249 51 CURVE SMOOTH",
"169 51 OFFCURVE",
"120 108 OFFCURVE",
"120 202 CURVE SMOOTH",
"120 292 OFFCURVE",
"164 367 OFFCURVE",
"269 428 CURVE",
"221 448 LINE",
"90 390 OFFCURVE",
"43 303 OFFCURVE",
"43 202 CURVE SMOOTH",
"43 74 OFFCURVE",
"117 -8 OFFCURVE",
"244 -8 CURVE SMOOTH"
);
}
);
width = 504;
}
);
leftKerningGroup = c;
rightKerningGroup = delta;
unicode = 03B4;
},
{
color = 0;
glyphname = epsilon;
lastChange = "2016-11-15 22:45:10 +0000";
layers = (
{
anchors = (
{
name = top;
position = "{217, 459}";
}
);
background = {
paths = (
{
closed = 1;
nodes = (
"288 -7 OFFCURVE",
"337 3 OFFCURVE",
"385 25 CURVE",
"392 82 LINE",
"384 87 LINE",
"341 63 OFFCURVE",
"293 52 OFFCURVE",
"245 52 CURVE SMOOTH",
"171 52 OFFCURVE",
"129 84 OFFCURVE",
"129 135 CURVE SMOOTH",
"129 181 OFFCURVE",
"163 208 OFFCURVE",
"224 208 CURVE SMOOTH",
"331 208 LINE",
"336 256 LINE",
"332 262 LINE",
"219 262 LINE",
"175 275 OFFCURVE",
"149 305 OFFCURVE",
"149 341 CURVE SMOOTH",
"149 383 OFFCURVE",
"182 407 OFFCURVE",
"242 407 CURVE SMOOTH",
"283 407 OFFCURVE",
"326 396 OFFCURVE",
"372 373 CURVE",
"380 375 LINE",
"394 433 LINE",
"344 456 OFFCURVE",
"293 466 OFFCURVE",
"242 466 CURVE SMOOTH",
"135 466 OFFCURVE",
"70 422 OFFCURVE",
"70 348 CURVE SMOOTH",
"70 288 OFFCURVE",
"114 245 OFFCURVE",
"204 223 CURVE",
"227 250 LINE",
"112 250 OFFCURVE",
"51 207 OFFCURVE",
"51 126 CURVE SMOOTH",
"51 41 OFFCURVE",
"117 -7 OFFCURVE",
"238 -7 CURVE SMOOTH"
);
}
);
};
layerId = UUID0;
paths = (
{
closed = 1;
nodes = (
"238 -7 LINE",
"288 -7 OFFCURVE",
"346 4 OFFCURVE",
"395 28 CURVE",
"406 97 LINE",
"398 102 LINE",
"355 78 OFFCURVE",
"313 57 OFFCURVE",
"245 57 CURVE SMOOTH",
"171 57 OFFCURVE",
"121 80 OFFCURVE",
"121 131 CURVE SMOOTH",
"121 177 OFFCURVE",
"165 206 OFFCURVE",
"226 206 CURVE SMOOTH",
"341 206 LINE",
"346 259 LINE",
"342 265 LINE",
"222 265 LINE",
"175 278 OFFCURVE",
"140 292 OFFCURVE",
"140 338 CURVE SMOOTH",
"140 380 OFFCURVE",
"181 406 OFFCURVE",
"241 406 CURVE SMOOTH",
"292 406 OFFCURVE",
"337 392 OFFCURVE",
"383 369 CURVE",
"391 371 LINE",
"405 432 LINE",
"355 456 OFFCURVE",
"309 466 OFFCURVE",
"241 466 CURVE SMOOTH",
"134 466 OFFCURVE",
"60 417 OFFCURVE",
"60 343 CURVE SMOOTH",
"60 273 OFFCURVE",
"116 245 OFFCURVE",
"203 223 CURVE",
"214 250 LINE",
"99 250 OFFCURVE",
"41 202 OFFCURVE",
"41 123 CURVE SMOOTH",
"41 38 OFFCURVE",
"117 -7 OFFCURVE",
"238 -7 CURVE SMOOTH"
);
}
);
width = 431;
}
);
leftKerningGroup = epsilon;
rightKerningGroup = epsilon;
unicode = 03B5;
},
{
color = 0;
glyphname = zeta;
lastChange = "2016-11-15 22:45:10 +0000";
layers = (
{
background = {
paths = (
{
closed = 1;
nodes = (
"194 -182 LINE",
"307 -139 OFFCURVE",
"362 -86 OFFCURVE",
"362 -16 CURVE SMOOTH",
"362 29 OFFCURVE",
"340 57 OFFCURVE",
"288 74 CURVE",
"227 96 LINE",
"160 118 OFFCURVE",
"133 143 OFFCURVE",
"133 200 CURVE SMOOTH",
"133 276 OFFCURVE",
"204 399 OFFCURVE",
"393 644 CURVE",
"394 701 LINE",
"346 700 LINE",
"170 700 LINE",
"81 701 LINE",
"75 642 LINE",
"79 637 LINE",
"154 641 LINE",
"304 641 LINE",
"121 404 OFFCURVE",
"54 282 OFFCURVE",
"54 191 CURVE SMOOTH",
"54 100 OFFCURVE",
"98 56 OFFCURVE",
"196 27 CURVE",
"258 7 LINE SMOOTH",
"281 0 OFFCURVE",
"292 -10 OFFCURVE",
"292 -26 CURVE SMOOTH",
"292 -58 OFFCURVE",
"253 -87 OFFCURVE",
"168 -120 CURVE",
"163 -130 LINE"
);
}
);
};
layerId = UUID0;
paths = (
{
closed = 1;
nodes = (
"39 194 LINE SMOOTH",
"39 102 OFFCURVE",
"93 40 OFFCURVE",
"193 23 CURVE SMOOTH",
"283 8 LINE SMOOTH",
"306 4 OFFCURVE",
"321 -13 OFFCURVE",
"321 -29 CURVE SMOOTH",
"321 -75 OFFCURVE",
"242 -104 OFFCURVE",
"207 -117 CURVE",
"203 -127 LINE",
"233 -183 LINE",
"341 -139 OFFCURVE",
"393 -84 OFFCURVE",
"393 -16 CURVE SMOOTH",
"393 31 OFFCURVE",
"358 68 OFFCURVE",
"304 78 CURVE SMOOTH",
"217 94 LINE SMOOTH",
"154 106 OFFCURVE",
"118 143 OFFCURVE",
"118 202 CURVE SMOOTH",
"118 298 OFFCURVE",
"202 431 OFFCURVE",
"403 641 CURVE",
"404 701 LINE",
"356 700 LINE",
"170 700 LINE",
"81 701 LINE",
"75 642 LINE",
"79 637 LINE",
"154 641 LINE",
"317 641 LINE",
"134 441 OFFCURVE",
"39 308 OFFCURVE",
"39 194 CURVE SMOOTH"
);
}
);
width = 388;
}
);
leftKerningGroup = zeta;
rightKerningGroup = zeta;
unicode = 03B6;
},
{
color = 0;
glyphname = eta;
lastChange = "2016-11-15 22:45:10 +0000";
layers = (
{
anchors = (
{
name = top;
position = "{271, 459}";
}
);
background = {
paths = (
{
closed = 1;
nodes = (
"381 -185 LINE",
"466 -185 LINE",
"463 200 LINE",
"465 330 LINE SMOOTH",
"466 416 OFFCURVE",
"416 465 OFFCURVE",
"326 465 CURVE",
"278 459 OFFCURVE",
"227 431 OFFCURVE",
"183 385 CURVE",
"170 385 LINE",
"170 324 LINE",
"212 370 OFFCURVE",
"258 397 OFFCURVE",
"298 397 CURVE SMOOTH",
"354 397 OFFCURVE",
"386 362 OFFCURVE",
"386 300 CURVE"
);
},
{
closed = 1;
nodes = (
"99 0 LINE",
"182 0 LINE",
"179 201 LINE",
"179 372 LINE SMOOTH",
"179 434 OFFCURVE",
"148 464 OFFCURVE",
"89 464 CURVE",
"68 462 OFFCURVE",
"44 453 OFFCURVE",
"24 438 CURVE",
"15 388 LINE",
"23 381 LINE",
"39 390 OFFCURVE",
"53 394 OFFCURVE",
"66 394 CURVE SMOOTH",
"91 394 OFFCURVE",
"101 381 OFFCURVE",
"101 344 CURVE SMOOTH",
"102 194 LINE"
);
}
);
};
layerId = UUID0;
paths = (
{
closed = 1;
nodes = (
"381 -185 LINE",
"466 -185 LINE",
"463 200 LINE",
"465 330 LINE SMOOTH",
"466 416 OFFCURVE",
"406 465 OFFCURVE",
"316 465 CURVE",
"271 456 OFFCURVE",
"227 431 OFFCURVE",
"183 385 CURVE",
"170 385 LINE",
"170 304 LINE",
"212 357 OFFCURVE",
"266 394 OFFCURVE",
"306 394 CURVE SMOOTH",
"369 394 OFFCURVE",
"386 362 OFFCURVE",
"386 300 CURVE"
);
},
{
closed = 1;
nodes = (
"65 395 LINE SMOOTH",
"90 395 OFFCURVE",
"101 381 OFFCURVE",
"101 344 CURVE SMOOTH",
"102 194 LINE",
"99 0 LINE",
"182 0 LINE",
"177 201 LINE",
"179 372 LINE SMOOTH",
"179 434 OFFCURVE",
"148 464 OFFCURVE",
"89 464 CURVE",
"69 462 OFFCURVE",
"49 455 OFFCURVE",
"32 445 CURVE",
"24 397 LINE",
"32 390 LINE",
"48 394 OFFCURVE",
"56 395 OFFCURVE",
"65 395 CURVE SMOOTH"
);
}
);
width = 541;
}
);
leftKerningGroup = ij;
rightKerningGroup = a;
unicode = 03B7;
},
{
color = 0;
glyphname = iota;
lastChange = "2016-11-15 22:45:10 +0000";
layers = (
{
anchors = (
{
name = top;
position = "{129, 459}";
}
);
background = {
paths = (
{
closed = 1;
nodes = (
"160 461 LINE",
"77 453 LINE",
"80 232 LINE",
"78 98 LINE",
"78 32 OFFCURVE",
"113 -5 OFFCURVE",
"168 -5 CURVE",
"190 -3 OFFCURVE",
"214 6 OFFCURVE",
"234 21 CURVE",
"243 66 LINE",
"235 74 LINE",
"218 64 OFFCURVE",
"205 60 OFFCURVE",
"191 60 CURVE SMOOTH",
"166 60 OFFCURVE",
"156 73 OFFCURVE",
"156 110 CURVE SMOOTH"
);
}
);
};
layerId = UUID0;
paths = (
{
closed = 1;
nodes = (
"77 90 LINE",
"81 28 OFFCURVE",
"110 -5 OFFCURVE",
"161 -5 CURVE",
"181 -3 OFFCURVE",
"201 4 OFFCURVE",
"218 14 CURVE",
"226 62 LINE",
"218 69 LINE",
"202 65 OFFCURVE",
"194 64 OFFCURVE",
"185 64 CURVE SMOOTH",
"164 64 OFFCURVE",
"157 73 OFFCURVE",
"156 100 CURVE",
"160 461 LINE",
"77 453 LINE",
"80 232 LINE"
);
}
);
width = 258;
}
);
leftKerningGroup = iota;
rightKerningGroup = iota;
unicode = 03B9;
},
{
color = 0;
glyphname = kappa;
lastChange = "2016-11-15 22:45:10 +0000";
layers = (
{
anchors = (
{
name = bottom;
position = "{231, 0}";
},
{
name = ogonek;
position = "{218, 10}";
},
{
name = top;
position = "{231, 459}";
}
);
background = {
paths = (
{
closed = 1;
nodes = (
"438 459 LINE",
"347 459 LINE",
"321 417 LINE",
"177 248 LINE",
"177 241 LINE",
"235 156 OFFCURVE",
"299 75 OFFCURVE",
"366 -5 CURVE",
"376 -9 LINE",
"401 -5 OFFCURVE",
"426 -2 OFFCURVE",
"451 5 CURVE",
"451 15 LINE",
"385 90 OFFCURVE",
"320 169 OFFCURVE",
"260 249 CURVE"
);
},
{
closed = 1;
nodes = (
"80 0 LINE",
"164 0 LINE",
"161 201 LINE",
"164 461 LINE",
"81 453 LINE",
"84 194 LINE"
);
}
);
};
layerId = UUID0;
paths = (
{
closed = 1;
nodes = (
"438 459 LINE",
"347 459 LINE",
"318 417 LINE",
"163 248 LINE",
"163 241 LINE",
"221 156 OFFCURVE",
"305 75 OFFCURVE",
"372 -5 CURVE",
"382 -9 LINE",
"407 -5 OFFCURVE",
"426 -2 OFFCURVE",
"451 5 CURVE",
"451 15 LINE",
"385 90 OFFCURVE",
"306 169 OFFCURVE",
"246 249 CURVE"
);
},
{
closed = 1;
nodes = (
"80 0 LINE",
"164 0 LINE",
"161 201 LINE",
"164 461 LINE",
"81 453 LINE",
"84 194 LINE"
);
}
);
width = 450;
}
);
leftKerningGroup = ij;
rightKerningGroup = k;
unicode = 03BA;
},
{
color = 0;
glyphname = lambda;
lastChange = "2016-11-15 22:45:10 +0000";
layers = (
{
background = {
paths = (
{
closed = 1;
nodes = (
"79 -3 LINE",
"93 59 LINE",
"206 368 LINE",
"212 368 LINE",
"318 65 LINE",
"335 0 LINE",
"416 0 LINE",
"247 459 LINE SMOOTH",
"193 604 OFFCURVE",
"123 654 OFFCURVE",
"-2 647 CURVE",
"-12 631 OFFCURVE",
"-20 613 OFFCURVE",
"-26 588 CURVE",
"-21 581 LINE",
"111 586 OFFCURVE",
"154 550 OFFCURVE",
"209 389 CURVE",
"184 493 LINE",
"5 2 LINE"
);
}
);
};
layerId = UUID0;
paths = (
{
closed = 1;
nodes = (
"216 354 LINE",
"307 66 LINE",
"320 24 OFFCURVE",
"335 -5 OFFCURVE",
"379 -5 CURVE",
"401 -3 OFFCURVE",
"427 4 OFFCURVE",
"447 17 CURVE",
"458 62 LINE",
"450 70 LINE",
"440 64 OFFCURVE",
"425 60 OFFCURVE",
"411 60 CURVE SMOOTH",
"394 60 OFFCURVE",
"382 65 OFFCURVE",
"377 80 CURVE",
"290 345 LINE",
"272 404 OFFCURVE",
"219 572 OFFCURVE",
"209 600 CURVE SMOOTH",
"185 669 OFFCURVE",
"150 698 OFFCURVE",
"72 698 CURVE SMOOTH",
"65 698 OFFCURVE",
"55 697 OFFCURVE",
"48 695 CURVE",
"32 628 LINE",
"37 621 LINE",
"45 621 OFFCURVE",
"63 623 OFFCURVE",
"79 623 CURVE SMOOTH",
"108 623 OFFCURVE",
"126 618 OFFCURVE",
"147 563 CURVE SMOOTH",
"159 533 OFFCURVE",
"190 450 OFFCURVE",
"209 389 CURVE",
"189 475 LINE",
"-13 2 LINE",
"83 -3 LINE",
"97 59 LINE",
"210 354 LINE"
);
}
);
width = 456;
}
);
leftKerningGroup = lambda;
rightKerningGroup = lambda;
unicode = 03BB;
},
{
color = 0;
glyphname = xi;
lastChange = "2016-11-15 22:45:10 +0000";
layers = (
{
background = {
paths = (
{
closed = 1;
nodes = (
"196 -182 LINE",
"303 -138 OFFCURVE",
"353 -86 OFFCURVE",
"353 -18 CURVE SMOOTH",
"353 29 OFFCURVE",
"330 58 OFFCURVE",
"281 74 CURVE SMOOTH",
"223 94 LINE",
"157 115 OFFCURVE",
"124 156 OFFCURVE",
"124 218 CURVE SMOOTH",
"124 292 OFFCURVE",
"173 333 OFFCURVE",
"259 333 CURVE SMOOTH",
"320 333 LINE",
"325 387 LINE",
"321 395 LINE",
"250 395 LINE",
"180 422 OFFCURVE",
"146 465 OFFCURVE",
"146 527 CURVE SMOOTH",
"146 595 OFFCURVE",
"188 634 OFFCURVE",
"262 634 CURVE SMOOTH",
"293 634 OFFCURVE",
"319 627 OFFCURVE",
"353 610 CURVE",
"362 614 LINE",
"377 676 LINE",
"338 695 OFFCURVE",
"299 703 OFFCURVE",
"256 703 CURVE SMOOTH",
"137 703 OFFCURVE",
"63 637 OFFCURVE",
"63 530 CURVE SMOOTH",
"63 435 OFFCURVE",
"121 376 OFFCURVE",
"240 351 CURVE",
"259 379 LINE",
"118 379 OFFCURVE",
"46 320 OFFCURVE",
"46 207 CURVE SMOOTH",
"46 114 OFFCURVE",
"95 54 OFFCURVE",
"194 25 CURVE",
"251 7 LINE SMOOTH",
"274 0 OFFCURVE",
"283 -11 OFFCURVE",
"283 -28 CURVE SMOOTH",
"283 -58 OFFCURVE",
"248 -87 OFFCURVE",
"169 -120 CURVE",
"165 -130 LINE"
);
}
);
};
layerId = UUID0;
paths = (
{
closed = 1;
nodes = (
"233 -183 LINE",
"341 -139 OFFCURVE",
"393 -84 OFFCURVE",
"393 -16 CURVE SMOOTH",
"393 31 OFFCURVE",
"358 68 OFFCURVE",
"304 78 CURVE SMOOTH",
"217 94 LINE SMOOTH",
"154 106 OFFCURVE",
"119 141 OFFCURVE",
"119 200 CURVE SMOOTH",
"119 289 OFFCURVE",
"186 347 OFFCURVE",
"270 347 CURVE SMOOTH",
"356 347 LINE",
"362 401 LINE",
"358 409 LINE",
"257 409 LINE",
"179 436 OFFCURVE",
"142 459 OFFCURVE",
"142 529 CURVE SMOOTH",
"142 605 OFFCURVE",
"208 637 OFFCURVE",
"273 637 CURVE SMOOTH",
"304 637 OFFCURVE",
"354 623 OFFCURVE",
"387 604 CURVE",
"397 608 LINE",
"419 676 LINE",
"380 695 OFFCURVE",
"321 704 OFFCURVE",
"278 704 CURVE SMOOTH",
"169 704 OFFCURVE",
"62 643 OFFCURVE",
"62 533 CURVE SMOOTH",
"62 439 OFFCURVE",
"129 390 OFFCURVE",
"246 365 CURVE",
"273 393 LINE",
"148 388 OFFCURVE",
"39 318 OFFCURVE",
"39 194 CURVE SMOOTH",
"39 102 OFFCURVE",
"93 40 OFFCURVE",
"193 23 CURVE SMOOTH",
"283 8 LINE SMOOTH",
"306 4 OFFCURVE",
"321 -13 OFFCURVE",
"321 -29 CURVE SMOOTH",
"321 -75 OFFCURVE",
"242 -104 OFFCURVE",
"207 -117 CURVE",
"203 -127 LINE"
);
}
);
width = 403;
}
);
leftKerningGroup = xi;
rightKerningGroup = xi;
unicode = 03BE;
},
{
color = 0;
glyphname = pi;
lastChange = "2016-11-15 22:45:10 +0000";
layers = (
{
background = {
paths = (
{
closed = 1;
nodes = (
"501 -3 OFFCURVE",
"531 7 OFFCURVE",
"556 20 CURVE",
"565 68 LINE",
"557 75 LINE",
"534 65 OFFCURVE",
"516 60 OFFCURVE",
"496 60 CURVE SMOOTH",
"463 60 OFFCURVE",
"451 75 OFFCURVE",
"451 118 CURVE SMOOTH",
"455 453 LINE",
"375 451 LINE",
"377 227 LINE",
"375 99 LINE",
"375 32 OFFCURVE",
"410 -5 OFFCURVE",
"475 -5 CURVE"
);
},
{
closed = 1;
nodes = (
"136 0 LINE",
"217 0 LINE",
"217 453 LINE",
"139 453 LINE",
"142 194 LINE"
);
},
{
closed = 1;
nodes = (
"6 349 LINE",
"14 349 LINE",
"56 387 OFFCURVE",
"83 398 OFFCURVE",
"134 398 CURVE SMOOTH",
"583 398 LINE",
"590 453 LINE",
"586 459 LINE",
"122 459 LINE SMOOTH",
"65 459 OFFCURVE",
"27 442 OFFCURVE",
"-16 395 CURVE",
"-16 385 LINE"
);
}
);
};
layerId = UUID0;
paths = (
{
closed = 1;
nodes = (
"465 -5 LINE",
"491 -3 OFFCURVE",
"521 7 OFFCURVE",
"546 20 CURVE",
"555 68 LINE",
"547 75 LINE",
"524 65 OFFCURVE",
"506 60 OFFCURVE",
"486 60 CURVE SMOOTH",
"460 60 OFFCURVE",
"451 75 OFFCURVE",
"451 118 CURVE SMOOTH",
"455 453 LINE",
"375 451 LINE",
"377 227 LINE",
"375 99 LINE SMOOTH",
"375 32 OFFCURVE",
"409 -5 OFFCURVE",
"465 -5 CURVE SMOOTH"
);
},
{
closed = 1;
nodes = (
"136 0 LINE",
"217 0 LINE",
"217 453 LINE",
"139 453 LINE",
"142 194 LINE"
);
},
{
closed = 1;
nodes = (
"26 359 LINE",
"34 359 LINE",
"67 390 OFFCURVE",
"103 398 OFFCURVE",
"134 398 CURVE SMOOTH",
"563 398 LINE",
"570 453 LINE",
"566 459 LINE",
"142 459 LINE SMOOTH",
"85 459 OFFCURVE",
"44 453 OFFCURVE",
"3 409 CURVE",
"3 399 LINE"
);
}
);
width = 610;
}
);
leftKerningGroup = pi;
rightKerningGroup = pi;
unicode = 03C0;
},
{
color = 0;
glyphname = sigmafinal;
lastChange = "2016-11-15 23:26:17 +0000";
layers = (
{
background = {
paths = (
{
closed = 1;
nodes = (
"205 -181 LINE",
"316 -137 OFFCURVE",
"365 -86 OFFCURVE",
"365 -16 CURVE SMOOTH",
"365 30 OFFCURVE",
"340 63 OFFCURVE",
"292 75 CURVE SMOOTH",
"228 92 LINE SMOOTH",
"157 110 OFFCURVE",
"127 152 OFFCURVE",
"127 233 CURVE SMOOTH",
"127 335 OFFCURVE",
"174 397 OFFCURVE",
"250 397 CURVE SMOOTH",
"284 397 OFFCURVE",
"320 386 OFFCURVE",
"351 364 CURVE",
"360 367 LINE",
"375 431 LINE",
"344 453 OFFCURVE",
"297 467 OFFCURVE",
"251 467 CURVE SMOOTH",
"125 467 OFFCURVE",
"47 375 OFFCURVE",
"47 228 CURVE SMOOTH",
"47 111 OFFCURVE",
"96 45 OFFCURVE",
"201 22 CURVE SMOOTH",
"261 8 LINE SMOOTH",
"284 2 OFFCURVE",
"295 -9 OFFCURVE",
"295 -26 CURVE SMOOTH",
"295 -58 OFFCURVE",
"259 -86 OFFCURVE",
"178 -119 CURVE",
"174 -129 LINE"
);
}
);
};
layerId = UUID0;
paths = (
{
closed = 1;
nodes = (
"205 -181 LINE",
"316 -137 OFFCURVE",
"365 -86 OFFCURVE",
"365 -16 CURVE SMOOTH",
"365 30 OFFCURVE",
"331 62 OFFCURVE",
"284 76 CURVE SMOOTH",
"235 91 LINE SMOOTH",
"165 112 OFFCURVE",
"127 152 OFFCURVE",
"127 233 CURVE SMOOTH",
"127 335 OFFCURVE",
"174 397 OFFCURVE",
"250 397 CURVE SMOOTH",
"284 397 OFFCURVE",
"320 386 OFFCURVE",
"351 364 CURVE",
"360 367 LINE",
"375 431 LINE",
"344 453 OFFCURVE",
"297 467 OFFCURVE",
"251 467 CURVE SMOOTH",
"125 467 OFFCURVE",
"47 375 OFFCURVE",
"47 228 CURVE SMOOTH",
"47 111 OFFCURVE",
"111 52 OFFCURVE",
"214 20 CURVE SMOOTH",
"259 6 LINE",
"282 -1 OFFCURVE",
"293 -11 OFFCURVE",
"293 -28 CURVE SMOOTH",
"293 -60 OFFCURVE",
"259 -86 OFFCURVE",
"178 -119 CURVE",
"174 -129 LINE"
);
}
);
width = 387;
}
);
leftKerningGroup = c;
rightKerningGroup = uni03C2;
unicode = 03C2;
},
{
color = 0;
glyphname = tau;
lastChange = "2016-11-15 22:45:10 +0000";
layers = (
{
background = {
paths = (
{
closed = 1;
nodes = (
"286 -3 OFFCURVE",
"316 7 OFFCURVE",
"342 20 CURVE",
"351 68 LINE",
"343 75 LINE",
"320 65 OFFCURVE",
"301 60 OFFCURVE",
"282 60 CURVE SMOOTH",
"248 60 OFFCURVE",
"236 75 OFFCURVE",
"236 118 CURVE SMOOTH",
"240 453 LINE",
"159 451 LINE",
"161 227 LINE",
"159 99 LINE",
"159 32 OFFCURVE",
"195 -5 OFFCURVE",
"260 -5 CURVE"
);
},
{
closed = 1;
nodes = (
"25 349 LINE",
"33 349 LINE",
"75 387 OFFCURVE",
"102 398 OFFCURVE",
"153 398 CURVE SMOOTH",
"380 398 LINE",
"386 453 LINE",
"383 459 LINE",
"141 459 LINE SMOOTH",
"84 459 OFFCURVE",
"46 442 OFFCURVE",
"3 395 CURVE",
"3 385 LINE"
);
}
);
};
layerId = UUID0;
paths = (
{
closed = 1;
nodes = (
"25 359 LINE",
"33 359 LINE",
"66 385 OFFCURVE",
"110 398 OFFCURVE",
"141 398 CURVE SMOOTH",
"379 398 LINE",
"386 453 LINE",
"382 459 LINE",
"141 459 LINE SMOOTH",
"84 459 OFFCURVE",
"43 448 OFFCURVE",
"2 409 CURVE",
"2 399 LINE"
);
},
{
closed = 1;
nodes = (
"260 -5 LINE",
"286 -3 OFFCURVE",
"316 7 OFFCURVE",
"342 20 CURVE",
"351 68 LINE",
"343 75 LINE",
"320 65 OFFCURVE",
"301 60 OFFCURVE",
"282 60 CURVE SMOOTH",
"248 60 OFFCURVE",
"236 75 OFFCURVE",
"236 118 CURVE SMOOTH",
"240 453 LINE",
"159 451 LINE",
"161 227 LINE",
"159 99 LINE",
"159 32 OFFCURVE",
"195 -5 OFFCURVE",
"260 -5 CURVE"
);
}
);
width = 403;
}
);
leftKerningGroup = pi;
rightKerningGroup = pi;
unicode = 03C4;
},
{
color = 0;
glyphname = phi;
lastChange = "2016-11-15 22:45:10 +0000";
layers = (
{
background = {
paths = (
{
closed = 1;
nodes = (
"272 -185 LINE",
"350 -185 LINE",
"348 316 LINE",
"347 373 OFFCURVE",
"368 401 OFFCURVE",
"412 401 CURVE SMOOTH",
"474 401 OFFCURVE",
"506 346 OFFCURVE",
"506 241 CURVE SMOOTH",
"506 108 OFFCURVE",
"448 54 OFFCURVE",
"311 54 CURVE SMOOTH",
"180 54 OFFCURVE",
"120 109 OFFCURVE",
"120 234 CURVE SMOOTH",
"120 317 OFFCURVE",
"153 371 OFFCURVE",
"226 412 CURVE",
"226 422 LINE",
"189 463 LINE",
"95 413 OFFCURVE",
"46 339 OFFCURVE",
"46 230 CURVE SMOOTH",
"46 75 OFFCURVE",
"137 -6 OFFCURVE",
"309 -6 CURVE SMOOTH",
"488 -6 OFFCURVE",
"580 80 OFFCURVE",
"580 248 CURVE SMOOTH",
"580 386 OFFCURVE",
"519 466 OFFCURVE",
"414 466 CURVE SMOOTH",
"330 466 OFFCURVE",
"277 411 OFFCURVE",
"276 324 CURVE SMOOTH"
);
}
);
};
layerId = UUID0;
paths = (
{
closed = 1;
nodes = (
"280 -185 LINE",
"358 -185 LINE",
"356 314 LINE SMOOTH",
"356 371 OFFCURVE",
"384 401 OFFCURVE",
"428 401 CURVE SMOOTH",
"490 401 OFFCURVE",
"533 346 OFFCURVE",
"533 241 CURVE SMOOTH",
"533 98 OFFCURVE",
"456 54 OFFCURVE",
"319 54 CURVE SMOOTH",
"188 54 OFFCURVE",
"118 109 OFFCURVE",
"118 234 CURVE SMOOTH",
"118 317 OFFCURVE",
"150 379 OFFCURVE",
"225 409 CURVE",
"225 419 LINE",
"192 464 LINE",
"96 427 OFFCURVE",
"41 349 OFFCURVE",
"41 230 CURVE SMOOTH",
"41 70 OFFCURVE",
"145 -6 OFFCURVE",
"317 -6 CURVE SMOOTH",
"496 -6 OFFCURVE",
"610 71 OFFCURVE",
"610 246 CURVE SMOOTH",
"610 389 OFFCURVE",
"535 466 OFFCURVE",
"430 466 CURVE SMOOTH",
"346 466 OFFCURVE",
"285 409 OFFCURVE",
"284 322 CURVE SMOOTH"
);
}
);
width = 627;
}
);
leftKerningGroup = c;
rightKerningGroup = b;
unicode = 03C6;
},
{
color = 0;
glyphname = chi;
lastChange = "2016-11-15 22:45:10 +0000";
layers = (
{
background = {
paths = (
{
closed = 1;
nodes = (
"457 -168 LINE",
"457 -160 LINE",
"424 -126 OFFCURVE",
"390 -75 OFFCURVE",
"366 -27 CURVE SMOOTH",
"282 141 LINE",
"440 459 LINE",
"359 459 LINE",
"340 409 LINE",
"220 151 LINE",
"219 128 LINE",
"303 -57 LINE",
"326 -104 OFFCURVE",
"358 -154 OFFCURVE",
"394 -191 CURVE"
);
},
{
closed = 1;
nodes = (
"21 -185 LINE",
"102 -185 LINE",
"121 -135 LINE",
"248 134 LINE",
"248 158 LINE",
"170 331 LINE SMOOTH",
"149 378 OFFCURVE",
"116 429 OFFCURVE",
"80 465 CURVE",
"17 442 LINE",
"17 434 LINE",
"50 400 OFFCURVE",
"85 350 OFFCURVE",
"108 301 CURVE",
"185 144 LINE"
);
}
);
};
layerId = UUID0;
paths = (
{
closed = 1;
nodes = (
"147 397 LINE SMOOTH",
"127 437 OFFCURVE",
"97 458 OFFCURVE",
"39 458 CURVE SMOOTH",
"32 458 OFFCURVE",
"25 457 OFFCURVE",
"18 455 CURVE",
"3 397 LINE",
"8 390 LINE",
"16 390 OFFCURVE",
"24 392 OFFCURVE",
"40 392 CURVE SMOOTH",
"59 392 OFFCURVE",
"74 381 OFFCURVE",
"88 358 CURVE SMOOTH",
"99 339 OFFCURVE",
"99 320 OFFCURVE",
"185 144 CURVE",
"21 -185 LINE",
"102 -185 LINE",
"121 -135 LINE",
"248 134 LINE",
"248 158 LINE",
"160 353 OFFCURVE",
"158 375 OFFCURVE",
"147 397 CURVE SMOOTH"
);
},
{
closed = 1;
nodes = (
"408 -193 LINE SMOOTH",
"429 -193 OFFCURVE",
"453 -185 OFFCURVE",
"470 -173 CURVE",
"481 -127 LINE",
"473 -119 LINE",
"463 -125 OFFCURVE",
"449 -129 OFFCURVE",
"435 -129 CURVE SMOOTH",
"419 -129 OFFCURVE",
"408 -120 OFFCURVE",
"401 -106 CURVE",
"282 141 LINE",
"440 459 LINE",
"359 459 LINE",
"340 409 LINE",
"220 151 LINE",
"219 128 LINE",
"328 -129 LINE",
"345 -167 OFFCURVE",
"372 -193 OFFCURVE",
"408 -193 CURVE SMOOTH"
);
}
);
width = 463;
}
);
leftKerningGroup = chi;
rightKerningGroup = chi;
unicode = 03C7;
},
{
color = 0;
glyphname = psi;
lastChange = "2016-11-15 22:45:10 +0000";
layers = (
{
background = {
paths = (
{
closed = 1;
nodes = (
"292 58 LINE",
"189 58 OFFCURVE",
"138 105 OFFCURVE",
"140 190 CURVE SMOOTH",
"143 460 LINE",
"68 453 LINE",
"70 237 LINE",
"69 180 LINE SMOOTH",
"65 65 OFFCURVE",
"143 -4 OFFCURVE",
"290 -4 CURVE"
);
},
{
closed = 1;
nodes = (
"282 -185 LINE",
"360 -185 LINE",
"358 201 LINE",
"361 548 LINE",
"283 542 LINE",
"286 194 LINE"
);
},
{
closed = 1;
nodes = (
"350 -4 LINE",
"494 -4 OFFCURVE",
"575 66 OFFCURVE",
"574 180 CURVE",
"577 460 LINE",
"502 453 LINE",
"503 190 LINE SMOOTH",
"503 105 OFFCURVE",
"452 58 OFFCURVE",
"352 58 CURVE"
);
}
);
};
layerId = UUID0;
paths = (
{
closed = 1;
nodes = (
"302 58 LINE",
"199 58 OFFCURVE",
"138 110 OFFCURVE",
"140 195 CURVE",
"143 460 LINE",
"68 453 LINE",
"70 242 LINE",
"69 185 LINE",
"65 70 OFFCURVE",
"153 -4 OFFCURVE",
"300 -4 CURVE"
);
},
{
closed = 1;
nodes = (
"292 -185 LINE",
"370 -185 LINE",
"368 201 LINE",
"371 548 LINE",
"293 542 LINE",
"296 194 LINE"
);
},
{
closed = 1;
nodes = (
"360 -4 LINE",
"504 -4 OFFCURVE",
"594 71 OFFCURVE",
"593 185 CURVE",
"596 460 LINE",
"521 453 LINE",
"522 195 LINE SMOOTH",
"522 110 OFFCURVE",
"462 58 OFFCURVE",
"362 58 CURVE"
);
}
);
width = 663;
}
);
leftKerningGroup = upsilon;
rightKerningGroup = upsilon;
unicode = 03C8;
},
{
color = 0;
glyphname = omega;
lastChange = "2016-11-15 22:45:10 +0000";
layers = (
{
anchors = (
{
name = bottom;
position = "{329, 0}";
},
{
name = top;
position = "{329, 459}";
}
);
background = {
paths = (
{
closed = 1;
nodes = (
"276 -11 OFFCURVE",
"324 41 OFFCURVE",
"342 152 CURVE",
"314 152 LINE",
"333 41 OFFCURVE",
"380 -11 OFFCURVE",
"463 -11 CURVE SMOOTH",
"562 -11 OFFCURVE",
"614 60 OFFCURVE",
"614 192 CURVE SMOOTH",
"614 275 OFFCURVE",
"593 368 OFFCURVE",
"553 465 CURVE",
"484 448 LINE",
"482 441 LINE",
"523 337 OFFCURVE",
"543 253 OFFCURVE",
"543 186 CURVE SMOOTH",
"543 100 OFFCURVE",
"513 55 OFFCURVE",
"454 55 CURVE SMOOTH",
"390 55 OFFCURVE",
"360 108 OFFCURVE",
"360 219 CURVE SMOOTH",
"360 313 LINE",
"294 307 LINE",
"294 219 LINE SMOOTH",
"294 107 OFFCURVE",
"264 55 OFFCURVE",
"200 55 CURVE SMOOTH",
"141 55 OFFCURVE",
"111 100 OFFCURVE",
"111 186 CURVE SMOOTH",
"111 253 OFFCURVE",
"131 337 OFFCURVE",
"173 441 CURVE",
"170 448 LINE",
"103 465 LINE",
"63 368 OFFCURVE",
"42 275 OFFCURVE",
"42 192 CURVE SMOOTH",
"42 60 OFFCURVE",
"95 -11 OFFCURVE",
"193 -11 CURVE SMOOTH"
);
}
);
};
layerId = UUID0;
paths = (
{
closed = 1;
nodes = (
"614 202 LINE",
"614 319 OFFCURVE",
"582 413 OFFCURVE",
"469 464 CURVE",
"429 417 LINE",
"429 407 LINE",
"521 370 OFFCURVE",
"536 285 OFFCURVE",
"536 196 CURVE",
"536 110 OFFCURVE",
"513 52 OFFCURVE",
"454 52 CURVE SMOOTH",
"399 52 OFFCURVE",
"365 95 OFFCURVE",
"365 206 CURVE SMOOTH",
"365 303 LINE",
"289 297 LINE",
"289 206 LINE SMOOTH",
"289 94 OFFCURVE",
"254 52 OFFCURVE",
"200 52 CURVE SMOOTH",
"141 52 OFFCURVE",
"121 124 OFFCURVE",
"121 210 CURVE SMOOTH",
"121 299 OFFCURVE",
"132 374 OFFCURVE",
"227 407 CURVE",
"227 417 LINE",
"187 464 LINE",
"74 413 OFFCURVE",
"42 319 OFFCURVE",
"42 202 CURVE SMOOTH",
"42 70 OFFCURVE",
"100 -11 OFFCURVE",
"198 -11 CURVE SMOOTH",
"273 -11 OFFCURVE",
"324 39 OFFCURVE",
"340 150 CURVE",
"316 150 LINE",
"333 39 OFFCURVE",
"383 -11 OFFCURVE",
"458 -11 CURVE SMOOTH",
"557 -11 OFFCURVE",
"614 70 OFFCURVE",
"614 202 CURVE"
);
}
);
width = 656;
}
);
leftKerningGroup = omega;
rightKerningGroup = omega;
unicode = 03C9;
},
{
color = 0;
glyphname = tonos;
lastChange = "2016-11-15 22:45:10 +0000";
layers = (
{
anchors = (
{
name = _top;
position = "{84, 459}";
},
{
name = _topleft;
position = "{130, 666}";
}
);
background = {
paths = (
{
closed = 1;
nodes = (
"107 703 LINE",
"93 641 OFFCURVE",
"79 585 OFFCURVE",
"64 530 CURVE",
"101 518 LINE",
"109 523 LINE",
"131 576 OFFCURVE",
"151 626 OFFCURVE",
"172 683 CURVE",
"168 692 LINE",
"115 708 LINE"
);
}
);
};
layerId = UUID0;
paths = (
{
closed = 1;
nodes = (
"124 702 LINE",
"104 642 OFFCURVE",
"85 588 OFFCURVE",
"65 534 CURVE",
"101 519 LINE",
"109 523 LINE",
"136 574 OFFCURVE",
"161 622 OFFCURVE",
"187 676 CURVE",
"184 686 LINE",
"132 707 LINE"
);
}
);
width = 221;
}
);
unicode = 0384;
},
